<?xml version="1.0" encoding="UTF-8" standalone="no"?>
<svg
   viewBox="0 0 64 64"
   version="1.1"
   id="svg81"
   sodipodi:docname="dev.edfloreshz.Tasks.svg"
   inkscape:version="1.2.2 (b0a8486541, 2022-12-01)"
   xml:space="preserve"
   xmlns:inkscape="http://www.inkscape.org/namespaces/inkscape"
   xmlns:sodipodi="http://sodipodi.sourceforge.net/DTD/sodipodi-0.dtd"
   xmlns:xlink="http://www.w3.org/1999/xlink"
   xmlns="http://www.w3.org/2000/svg"
   xmlns:svg="http://www.w3.org/2000/svg"><sodipodi:namedview
     id="namedview83"
     pagecolor="#ffffff"
     bordercolor="#000000"
     borderopacity="0.25"
     inkscape:showpageshadow="2"
     inkscape:pageopacity="0.0"
     inkscape:pagecheckerboard="0"
     inkscape:deskcolor="#d1d1d1"
     showgrid="false"
     inkscape:zoom="8.7173008"
     inkscape:cx="64.985712"
     inkscape:cy="29.309531"
     inkscape:window-width="2560"
     inkscape:window-height="947"
     inkscape:window-x="0"
     inkscape:window-y="0"
     inkscape:window-maximized="1"
     inkscape:current-layer="svg81" /><defs
     id="defs23"><linearGradient
       id="bgGrad"
       x1="2"
       y1="2"
       x2="62"
       y2="62"
       gradientUnits="userSpaceOnUse"
       gradientTransform="translate(0.20532323,0.1286439)"><stop
         offset="0%"
         style="stop-color:#667eea"
         id="stop2" /><stop
         offset="100%"
         style="stop-color:#764ba2"
         id="stop4" /></linearGradient><linearGradient
       id="moonGlow"
       x1="31.654059"
       y1="4.6744399"
       x2="31.654059"
       y2="47.938275"
       gradientTransform="matrix(-0.61454332,-0.49055143,0.79338204,-0.99391745,34.304605,76.805248)"
       gradientUnits="userSpaceOnUse"><stop
         offset="0%"
         style="stop-color:#ffffff;stop-opacity:0.3"
         id="stop7" /><stop
         offset="60%"
         style="stop-color:#dcdcdc;stop-opacity:0.1"
         id="stop9" /><stop
         offset="100%"
         style="stop-color:#ffffff;stop-opacity:0.6"
         id="stop11" /></linearGradient><filter
       id="glow"
       x="-0.15416667"
       y="-0.25227273"
       width="1.3083333"
       height="1.5045455"><feGaussianBlur
         stdDeviation="2"
         result="coloredBlur"
         id="feGaussianBlur14" /><feMerge
         id="feMerge20"><feMergeNode
           in="coloredBlur"
           id="feMergeNode16" /><feMergeNode
           in="SourceGraphic"
           id="feMergeNode18" /></feMerge></filter><radialGradient
       inkscape:collect="always"
       xlink:href="#moonGlow"
       id="radialGradient396"
       cx="18.902288"
       cy="20.840132"
       fx="18.902288"
       fy="20.840132"
       r="10.378976"
       gradientTransform="matrix(0.76396608,1.2103001,-0.6894444,0.43519321,19.452156,-9.2106197)"
       gradientUnits="userSpaceOnUse" /></defs><rect
     x="2.2053235"
     y="2.1286438"
     width="60"
     height="60"
     rx="12"
     ry="12"
     fill="url(#bgGrad)"
     id="rect25"
     style="fill:url(#bgGrad)" /><!-- Rounded background --><!-- Moon crescent (LUNA) --><path
     d="M 11.08459,50.593018 A 28.1,27.5 38.598175 0 0 35.608426,54.814566 28.1,27.5 38.598175 0 0 54.823151,30.743124 28.1,27.5 38.598175 0 0 41.676743,4.8948759 22.1,28 38.598175 0 1 43.865129,21.228306 22.1,28 38.598175 0 1 24.088247,45.362824 22.1,28 38.598175 0 1 5.7378902,45.429415 l -0.1247686,0.15631 a 28.1,27.5 38.598175 0 0 5.4714704,5.007294 z"
     fill="url(#moonGlow)"
     opacity="0.85"
     id="path27"
     style="fill:url(#moonGlow)" /><!-- AI Eye element (central focus) --><!-- Agentic circuit paths (robot-like connections) --><!-- Circuit nodes (agentic connection points) --><g
     id="g299"
     transform="matrix(0.02654524,-0.64265475,1.0962869,0.0155611,41.461909,43.946495)"
     inkscape:transform-center-x="1.6893889"
     inkscape:transform-center-y="1.9103607"><path
       d="m 18.358365,29.977186 h 3 l 2,2"
       id="path39"
       style="opacity:0.5;fill:none;stroke:#e0e7ff;stroke-width:1.2;stroke-linecap:round" /><path
       d="m 18.358365,33.977186 h 7"
       id="path41"
       style="opacity:0.5;fill:none;stroke:#e0e7ff;stroke-width:1.2;stroke-linecap:round" /><path
       d="m 18.358365,37.977186 h 3 l 2,-2"
       id="path43"
       style="opacity:0.5;fill:none;stroke:#e0e7ff;stroke-width:1.2;stroke-linecap:round" /><circle
       cx="18.358364"
       cy="29.977186"
       r="1.2"
       id="circle59"
       style="opacity:0.6;fill:#ffffff" /><circle
       cx="18.358364"
       cy="33.977188"
       r="1.2"
       id="circle61"
       style="opacity:0.6;fill:#ffffff" /><circle
       cx="18.358364"
       cy="37.977188"
       r="1.2"
       id="circle63"
       style="opacity:0.6;fill:#ffffff" /></g><g
     id="g267"
     transform="matrix(0.02036195,-0.64273229,1.0964192,0.01193639,43.555975,53.497911)"><path
       d="m 49,28 h -3 l -2,2"
       id="path45"
       style="opacity:0.5;fill:none;stroke:#e0e7ff;stroke-width:1.2;stroke-linecap:round" /><path
       d="M 49,32 H 42"
       id="path47"
       style="opacity:0.5;fill:none;stroke:#e0e7ff;stroke-width:1.2;stroke-linecap:round" /><path
       d="M 49,36 H 46 L 44,34"
       id="path49"
       style="opacity:0.5;fill:none;stroke:#e0e7ff;stroke-width:1.2;stroke-linecap:round" /><circle
       cx="49"
       cy="28"
       r="1.2"
       id="circle65"
       style="opacity:0.6;fill:#ffffff" /><circle
       cx="49"
       cy="32"
       r="1.2"
       id="circle67"
       style="opacity:0.6;fill:#ffffff" /><circle
       cx="49"
       cy="36"
       r="1.2"
       id="circle69"
       style="opacity:0.6;fill:#ffffff" /></g><g
     id="g275"
     transform="translate(51.702788,-8.8083016)"><path
       d="m 28,48 v 4"
       id="path51"
       style="opacity:0.5;fill:none;stroke:#e0e7ff;stroke-width:1.2;stroke-linecap:round" /><path
       d="m 32,48 v 6"
       id="path53"
       style="opacity:0.5;fill:none;stroke:#e0e7ff;stroke-width:1.2;stroke-linecap:round" /><path
       d="m 36,48 v 4"
       id="path55"
       style="opacity:0.5;fill:none;stroke:#e0e7ff;stroke-width:1.2;stroke-linecap:round" /><circle
       cx="28"
       cy="52"
       r="1.2"
       id="circle71"
       style="opacity:0.6;fill:#ffffff" /><circle
       cx="32"
       cy="54"
       r="1.2"
       id="circle73"
       style="opacity:0.6;fill:#ffffff" /><circle
       cx="36"
       cy="52"
       r="1.2"
       id="circle75"
       style="opacity:0.6;fill:#ffffff" /></g><!-- Subtle shine overlay --><path
     style="fill:url(#radialGradient396);fill-opacity:1;stroke-width:0.0232193"
     d="m 21.428245,34.298649 c -0.265832,-0.0852 -0.470458,-0.310347 -0.507689,-0.558598 -0.04203,-0.280276 0.192512,-0.59795 0.512696,-0.694405 l 0.08596,-0.02589 v -1.64881 -1.648808 h -1.055729 -1.055728 v 0.738541 0.738542 l 0.108117,0.04016 c 0.149489,0.05553 0.316059,0.187956 0.396351,0.315115 0.05848,0.09261 0.06745,0.132186 0.06745,0.297555 0,0.165967 -0.0089,0.204797 -0.06832,0.298984 -0.190954,0.302562 -0.615598,0.443514 -0.999664,0.331818 -0.182535,-0.05309 -0.422017,-0.254131 -0.481927,-0.404578 -0.0624,-0.156687 -0.04663,-0.381971 0.0363,-0.518782 0.07569,-0.124872 0.267277,-0.277785 0.405949,-0.324009 l 0.103277,-0.03442 V 30.461605 29.722146 L 18.60006,29.72139 c -0.206376,-4.08e-4 -0.463206,-0.01381 -0.570732,-0.02979 -0.491461,-0.07301 -0.889311,-0.359487 -1.058333,-0.762057 -0.056,-0.133378 -0.06466,-0.195756 -0.07603,-0.547886 l -0.01283,-0.397371 h -0.884044 -0.884046 l -0.04132,0.08604 c -0.0553,0.11514 -0.238601,0.274812 -0.388926,0.338791 -0.102986,0.04383 -0.158246,0.05202 -0.351172,0.05202 -0.267459,0 -0.401942,-0.04314 -0.56939,-0.182635 -0.167448,-0.139499 -0.219226,-0.251534 -0.219226,-0.474353 0,-0.220725 0.05161,-0.330811 0.222498,-0.4746 0.166004,-0.139678 0.299077,-0.182455 0.566118,-0.181981 0.197601,3.52e-4 0.246511,0.0081 0.357171,0.05639 0.152505,0.06658 0.311525,0.20531 0.378249,0.329984 l 0.04821,0.09007 h 0.88651 0.88651 v -0.879513 -0.879516 h -1.980816 -1.980805 l -0.04605,0.100668 c -0.06386,0.139592 -0.274943,0.307738 -0.44912,0.357754 -0.193296,0.0555 -0.454739,0.04918 -0.618351,-0.01494 -0.176319,-0.06912 -0.352979,-0.225496 -0.41781,-0.369849 -0.228649,-0.509117 0.314189,-1.024645 0.938599,-0.891379 0.262825,0.0561 0.486514,0.218032 0.561042,0.40616 l 0.02872,0.0725 h 1.982288 1.982288 v -0.879516 -0.879515 h -0.88651 -0.88651 l -0.04821,0.09007 c -0.12327,0.230332 -0.384699,0.377031 -0.699984,0.392793 -0.171191,0.0086 -0.211671,0.0029 -0.350845,-0.04914 -0.320262,-0.119736 -0.499976,-0.362729 -0.48177,-0.651407 0.01613,-0.255705 0.175532,-0.458298 0.448846,-0.570453 0.169827,-0.06969 0.524916,-0.07049 0.692785,-0.0016 0.155009,0.06365 0.316354,0.200552 0.384594,0.32634 l 0.05592,0.103084 h 0.885839 0.885839 l 8.91e-4,-0.312599 c 0.0015,-0.530833 0.09635,-0.795665 0.374617,-1.04606 0.166997,-0.150271 0.332495,-0.240083 0.571758,-0.310279 0.16595,-0.04869 0.233398,-0.05525 0.661769,-0.06434 l 0.476986,-0.01012 v -0.73536 -0.735359 l -0.127401,-0.04971 c -0.158089,-0.06169 -0.289716,-0.16893 -0.37707,-0.307221 -0.05774,-0.09141 -0.067,-0.132157 -0.06743,-0.296704 -5.69e-4,-0.222828 0.05096,-0.33458 0.218739,-0.474353 0.147998,-0.123295 0.305155,-0.180176 0.524321,-0.189769 0.264845,-0.01159 0.411175,0.03622 0.604973,0.197672 0.195585,0.162939 0.253144,0.286174 0.235911,0.505092 -0.01999,0.253945 -0.200096,0.47323 -0.471465,0.574028 l -0.108116,0.04016 v 0.738542 0.738541 h 1.055728 1.055728 v -1.648808 -1.648808 l -0.08595,-0.02589 c -0.314168,-0.09464 -0.554582,-0.414886 -0.515873,-0.68717 0.01829,-0.128694 0.110966,-0.30117 0.214701,-0.399598 0.202444,-0.192085 0.575859,-0.262593 0.881689,-0.166479 0.533864,0.167779 0.686658,0.74585 0.287134,1.086322 -0.08201,0.06988 -0.179324,0.128046 -0.253831,0.1517 l -0.120837,0.03836 v 1.650186 1.650186 h 1.055728 1.055729 v -0.738517 -0.738542 l -0.108116,-0.04016 c -0.493507,-0.183308 -0.633349,-0.725652 -0.272032,-1.055005 0.182402,-0.166265 0.31684,-0.214653 0.596381,-0.214653 0.187877,0 0.250382,0.0088 0.348388,0.04901 0.363045,0.148975 0.536719,0.494013 0.413257,0.821016 -0.05767,0.152739 -0.243751,0.327331 -0.419337,0.39344 l -0.126074,0.04747 v 0.735011 0.735012 l 0.476986,0.01069 c 0.422679,0.0095 0.497555,0.01668 0.657656,0.06334 0.483225,0.140811 0.827094,0.472255 0.914737,0.881687 0.01918,0.08958 0.03526,0.303539 0.03575,0.475469 l 8.9e-4,0.312599 h 0.886026 0.886025 l 0.05988,-0.106497 c 0.07302,-0.129885 0.225525,-0.259391 0.380268,-0.322927 0.165851,-0.0681 0.523051,-0.0681 0.688902,0 0.264001,0.108396 0.435927,0.320905 0.452508,0.559324 0.01955,0.281105 -0.141482,0.520012 -0.438072,0.649926 -0.113059,0.04952 -0.159669,0.05691 -0.358887,0.05691 -0.198501,0 -0.246007,-0.0075 -0.357171,-0.05619 -0.152635,-0.06689 -0.311597,-0.205657 -0.378248,-0.330195 l -0.04821,-0.09007 h -0.886511 -0.88651 v 0.879516 0.879515 l 1.977901,-8.5e-5 1.977901,-8.4e-5 0.04477,-0.09071 c 0.129331,-0.262071 0.489195,-0.442522 0.817834,-0.410096 0.178467,0.01761 0.426656,0.124231 0.535288,0.229961 0.267615,0.260463 0.252226,0.668533 -0.03418,0.906158 -0.138241,0.114698 -0.255372,0.164606 -0.461147,0.196487 -0.346993,0.05376 -0.756058,-0.144868 -0.865071,-0.420048 l -0.02872,-0.07249 H 28.538458 26.55617 v 0.879516 0.879515 h 0.88651 0.88651 l 0.04821,-0.09007 c 0.06665,-0.124539 0.225614,-0.263306 0.378249,-0.330196 0.111164,-0.04872 0.158669,-0.05619 0.357171,-0.05619 0.199218,0 0.245828,0.0074 0.358886,0.05691 0.170473,0.07467 0.351137,0.243834 0.405181,0.379389 0.05797,0.145399 0.04288,0.37787 -0.03292,0.507253 -0.13453,0.229616 -0.384715,0.364674 -0.698769,0.377219 -0.175528,0.007 -0.213665,0.0012 -0.356149,-0.05459 -0.188144,-0.07362 -0.321321,-0.18132 -0.402277,-0.325315 l -0.05855,-0.10413 h -0.882689 -0.882689 l -0.01248,0.397371 c -0.01057,0.336773 -0.02107,0.41838 -0.06885,0.535128 -0.145105,0.354585 -0.450533,0.61311 -0.868038,0.734738 -0.170373,0.04963 -0.237185,0.05624 -0.666345,0.06585 l -0.476986,0.01069 v 0.735011 0.735012 l 0.126075,0.04747 c 0.166575,0.06272 0.365203,0.244329 0.42141,0.385308 0.05869,0.147201 0.04347,0.378327 -0.03356,0.50983 -0.07238,0.123562 -0.236183,0.259649 -0.385705,0.320448 -0.155305,0.06315 -0.434352,0.07572 -0.608882,0.02743 -0.162714,-0.04502 -0.365769,-0.195533 -0.455401,-0.337552 -0.05944,-0.09419 -0.06832,-0.133018 -0.06832,-0.298985 0,-0.165369 0.009,-0.204945 0.06745,-0.297555 0.08029,-0.127159 0.246862,-0.259588 0.396351,-0.315114 l 0.108117,-0.04016 v -0.73854 -0.738542 h -1.055725 -1.055728 v 1.651422 1.651422 l 0.08703,0.02393 c 0.330312,0.09082 0.568735,0.431606 0.504205,0.720681 -0.03883,0.173933 -0.09876,0.2701 -0.240303,0.385599 -0.218875,0.1786 -0.559626,0.236184 -0.848921,0.143461 z m 0.498003,-0.364374 c 0.09995,-0.05684 0.178061,-0.170728 0.178061,-0.259616 0,-0.08889 -0.07811,-0.202781 -0.178061,-0.259617 -0.177051,-0.10068 -0.433175,-0.04283 -0.538012,0.12153 -0.12943,0.202911 0.05267,0.445387 0.334485,0.445387 0.0823,0 0.145859,-0.01489 0.203527,-0.04769 z m -2.511824,-1.828948 c 0.144301,-0.08779 0.189013,-0.278967 0.09522,-0.407124 -0.141192,-0.192921 -0.438874,-0.205125 -0.620368,-0.02543 -0.05438,0.05384 -0.06663,0.08761 -0.06663,0.183691 0,0.111227 0.0063,0.122977 0.114207,0.212869 0.113146,0.09426 0.115578,0.09506 0.261908,0.08624 0.09227,-0.0056 0.173209,-0.02442 0.215662,-0.05025 z m 5.039421,0.0138 c 0.114522,-0.0629 0.168593,-0.148042 0.168782,-0.265767 3.15e-4,-0.197353 -0.170366,-0.322753 -0.412876,-0.303341 -0.335971,0.02689 -0.445597,0.398631 -0.165632,0.561646 0.105517,0.06144 0.304841,0.06507 0.409726,0.0075 z m 1.114049,-2.834654 c 0.214729,-0.08476 0.361196,-0.206775 0.462931,-0.385663 l 0.08017,-0.140961 v -3.06241 -3.06241 l -0.08025,-0.141117 c -0.09969,-0.1753 -0.251845,-0.301356 -0.466691,-0.386647 l -0.165355,-0.06564 -3.599652,-0.0058 c -2.344428,-0.0037 -3.641601,0.0017 -3.719948,0.01557 -0.299534,0.05309 -0.530146,0.206371 -0.663599,0.441063 l -0.08104,0.142519 v 3.06241 3.06241 l 0.06812,0.12107 c 0.09044,0.160748 0.184919,0.256999 0.338912,0.34527 0.24918,0.142832 0.02654,0.135592 4.03212,0.131118 l 3.625092,-0.0041 z m -3.165691,-1.698737 c -0.02642,-0.0044 -0.115418,-0.195368 -0.276543,-0.593408 l -0.237584,-0.58692 H 21.07825 20.268424 l -0.232195,0.58811 -0.232194,0.58811 h -0.2999 c -0.164944,0 -0.299899,-0.0079 -0.299899,-0.0175 0,-0.0096 0.02987,-0.0883 0.06638,-0.174844 0.03651,-0.08654 0.358235,-0.872614 0.714942,-1.746831 0.356707,-0.874217 0.671314,-1.644323 0.699128,-1.711347 l 0.05057,-0.12186 h 0.366533 c 0.222799,0 0.366534,0.0082 0.366534,0.0208 0,0.01753 1.463524,3.607919 1.513558,3.713137 0.0152,0.03198 -0.01232,0.03643 -0.261865,0.04238 -0.153372,0.0037 -0.29639,0.0037 -0.317818,1.7e-4 z m -0.654043,-1.59113 c 0,-0.0103 -0.112711,-0.294024 -0.250471,-0.630496 -0.137758,-0.336472 -0.28838,-0.728683 -0.334713,-0.87158 -0.04634,-0.142897 -0.08676,-0.25734 -0.08983,-0.254318 -0.0031,0.003 -0.04791,0.133098 -0.09963,0.289058 -0.05173,0.15596 -0.201958,0.551212 -0.333845,0.878338 -0.131888,0.327125 -0.239796,0.597688 -0.239796,0.60125 0,0.0036 0.303363,0.0065 0.674141,0.0065 0.373323,0 0.674139,-0.0084 0.674139,-0.01873 z m 1.908828,-0.299169 0.0025,-1.88619 h 0.303057 0.303057 l 7.54e-4,1.88619 7.53e-4,1.88619 h -0.306291 -0.306327 l 0.0025,-1.88619 z m -9.078426,2.335158 c 0.08898,-0.06914 0.105833,-0.09627 0.116323,-0.187228 0.01375,-0.119203 -0.02295,-0.197315 -0.132943,-0.282933 -0.05822,-0.04532 -0.09209,-0.05298 -0.234279,-0.05298 -0.164301,0 -0.16735,0.001 -0.265062,0.0928 -0.08756,0.0822 -0.09883,0.105195 -0.09868,0.201335 2.97e-4,0.191848 0.143128,0.309492 0.376046,0.309734 0.120846,1.27e-4 0.145133,-0.0081 0.238596,-0.08072 z m 14.738421,0.03814 c 0.151024,-0.07776 0.214985,-0.293836 0.124401,-0.420259 -0.07493,-0.104568 -0.161398,-0.141025 -0.334499,-0.141025 -0.147702,0 -0.164756,0.0052 -0.248792,0.07516 -0.186399,0.155287 -0.131382,0.429514 0.102092,0.508864 0.09609,0.03266 0.270836,0.02152 0.356798,-0.02274 z M 12.309695,25.976214 c 0.272542,-0.114075 0.273066,-0.438944 9.04e-4,-0.559432 -0.245431,-0.108653 -0.53462,0.04208 -0.53462,0.278656 0,0.233581 0.286445,0.384274 0.533716,0.280776 z m 19.156652,-0.0021 c 0.129379,-0.05728 0.203117,-0.158437 0.203117,-0.278655 0,-0.120219 -0.07374,-0.22138 -0.203117,-0.278656 -0.243563,-0.107827 -0.534621,0.04388 -0.534621,0.278656 0,0.168111 0.173802,0.317896 0.368869,0.317896 0.04241,0 0.117,-0.01766 0.165752,-0.03924 z M 14.563643,23.829135 c 0.107669,-0.0838 0.144916,-0.163053 0.131459,-0.279719 -0.0097,-0.0842 -0.02954,-0.119054 -0.102153,-0.179547 -0.161762,-0.134763 -0.430414,-0.119296 -0.565598,0.03256 -0.03828,0.043 -0.05088,0.09033 -0.05088,0.191132 0,0.130719 0.0027,0.136062 0.110244,0.219649 0.107398,0.08346 0.114124,0.08544 0.260404,0.07662 0.114411,-0.0069 0.165959,-0.02135 0.216523,-0.0607 z m 14.721007,0.03133 c 0.128827,-0.05118 0.19704,-0.149193 0.19704,-0.283122 0,-0.104859 -0.0078,-0.119215 -0.111129,-0.205322 -0.105082,-0.08754 -0.11898,-0.09258 -0.255378,-0.09258 -0.13271,0 -0.152818,0.0067 -0.25138,0.08325 -0.104536,0.08123 -0.107132,0.08657 -0.107132,0.220303 0,0.107041 0.01114,0.147485 0.05088,0.184697 0.131855,0.123477 0.311758,0.158459 0.477101,0.09277 z m -9.908466,-4.056612 c 0.241919,-0.122881 0.243129,-0.41894 0.0022,-0.538751 -0.151752,-0.07547 -0.411121,-0.02218 -0.504458,0.103636 -0.06165,0.0831 -0.06722,0.228895 -0.0121,0.316945 0.09458,0.15109 0.338996,0.207244 0.514358,0.11817 z m 5.038,0.0125 c 0.131864,-0.05716 0.190848,-0.131157 0.203165,-0.25489 0.02107,-0.211709 -0.143801,-0.345781 -0.400002,-0.325272 -0.111107,0.0089 -0.149327,0.02376 -0.226609,0.08814 -0.08756,0.07294 -0.09296,0.0853 -0.09296,0.212623 0,0.105167 0.0113,0.145755 0.05088,0.182823 0.128297,0.120146 0.319594,0.15983 0.465529,0.09657 z m -2.485351,-1.840941 c 0.09967,-0.05547 0.175397,-0.167376 0.175397,-0.259194 0,-0.03497 -0.02001,-0.09677 -0.04448,-0.137333 -0.13693,-0.227052 -0.526888,-0.227489 -0.671516,-7.51e-4 -0.175338,0.274881 0.227971,0.571269 0.540597,0.39728 z"
     id="path246" /></svg>
